<svg width="245" height="15" viewBox="0 0 245 15" fill="none" xmlns="http://www.w3.org/2000/svg">
<path d="M141.281 7.01219C141.281 6.94015 141.297 6.90413 141.333 6.90413C141.778 6.83609 142.07 6.47987 142.206 5.83148C142.346 5.18309 142.414 4.33057 142.414 3.27393C142.414 2.31735 142.482 1.61693 142.622 1.16866C142.762 0.720391 143.002 0.412204 143.346 0.252107C143.691 0.0920106 144.231 0.0119629 144.963 0.0119629C145.007 0.0119629 145.032 0.0439822 145.032 0.112023C145.032 0.180064 145.007 0.212084 144.963 0.212084C144.639 0.212084 144.391 0.364175 144.215 0.668359C144.039 0.972543 143.943 1.40881 143.931 1.97715C143.907 3.32997 143.863 4.28654 143.791 4.84288C143.719 5.39922 143.559 5.83548 143.306 6.15167C143.058 6.46786 142.626 6.75603 142.018 7.00819C142.63 7.27635 143.058 7.57253 143.306 7.90073C143.555 8.22893 143.719 8.66919 143.791 9.22553C143.863 9.78186 143.911 10.7304 143.931 12.0752C143.943 12.6396 144.035 13.0759 144.215 13.384C144.391 13.6882 144.643 13.8403 144.963 13.8403C145.007 13.8403 145.032 13.8723 145.032 13.9404C145.032 14.0084 145.007 14.0404 144.963 14.0404C144.231 14.0404 143.691 13.9604 143.338 13.8003C142.99 13.6402 142.746 13.332 142.614 12.8757C142.482 12.4195 142.414 11.715 142.414 10.7625C142.414 9.69781 142.346 8.8413 142.206 8.19691C142.066 7.55252 141.774 7.1963 141.333 7.13226C141.297 7.12026 141.281 7.08423 141.281 7.01219Z" fill="white"/>
<path d="M154.481 8.18494C154.341 8.82933 154.273 9.68585 154.273 10.7505C154.273 11.7071 154.205 12.4115 154.073 12.8638C153.941 13.32 153.697 13.6282 153.349 13.7883C153 13.9484 152.456 14.0285 151.724 14.0285C151.68 14.0285 151.656 13.9965 151.656 13.9284C151.656 13.8604 151.68 13.8284 151.724 13.8284C152.044 13.8284 152.296 13.6763 152.472 13.3721C152.648 13.0679 152.744 12.6316 152.756 12.0633C152.78 10.7185 152.824 9.7699 152.896 9.21357C152.968 8.65723 153.128 8.21696 153.381 7.88877C153.629 7.56057 154.061 7.26439 154.669 6.99623C154.057 6.74007 153.629 6.4559 153.381 6.13971C153.132 5.82352 152.968 5.38725 152.896 4.83092C152.824 4.27458 152.776 3.32201 152.756 1.96519C152.744 1.40085 152.652 0.964584 152.472 0.656398C152.296 0.352214 152.044 0.200121 151.724 0.200121C151.68 0.200121 151.656 0.168102 151.656 0.10006C151.656 0.0320193 151.68 0 151.724 0C152.456 0 152.996 0.0800493 153.341 0.240146C153.685 0.400243 153.925 0.708429 154.065 1.1567C154.205 1.60497 154.273 2.3094 154.273 3.26197C154.273 4.31861 154.341 5.16712 154.481 5.81952C154.621 6.46791 154.909 6.82813 155.354 6.89217C155.386 6.89217 155.402 6.92819 155.402 7.00023C155.402 7.07227 155.386 7.10829 155.354 7.10829C154.909 7.18834 154.617 7.54456 154.481 8.18494Z" fill="white"/>
<path d="M17.1144 9.8219V12.5555L11.1147 8.43306V5.60735L17.1144 1.48486V4.21851L12.8518 7.02021L17.1144 9.8219Z" fill="white"/>
<path d="M23.33 7.02021L19.0674 4.21851V1.48486L25.067 5.60735V8.43306L19.0674 12.5555V9.8219L23.33 7.02021Z" fill="white"/>
<path d="M2.93778 11.4949C0.688417 11.4949 0 10.7825 0 8.43305V5.11104C0 2.74962 0.684415 2.04919 2.93778 2.04919H8.23698C9.63782 2.04919 10.2822 2.91372 10.5023 3.43403L9.32163 4.64276C9.15753 4.27054 8.82934 3.91432 8.1129 3.91432H2.94978C2.12528 3.91432 1.83711 4.2145 1.83711 5.10704V8.44105C1.83711 9.23754 2.00121 9.63378 2.94978 9.63378H8.17694C8.90538 9.63378 9.20556 9.26155 9.36966 8.90534L10.5504 10.0981C10.3462 10.6184 9.68585 11.4829 8.28501 11.4829H2.93778V11.4949Z" fill="white"/>
<path d="M26.5 11.4949V2.04919H34.4448C36.7382 2.04919 37.4106 2.80565 37.4106 5.11104V8.43305C37.4106 10.7505 36.7382 11.4949 34.4448 11.4949H26.5ZM35.5575 5.12305C35.5575 4.19049 35.2573 3.91432 34.4448 3.91432H28.3651V9.63778H34.4448C35.2813 9.63778 35.5575 9.37762 35.5575 8.44506V5.12305Z" fill="white"/>
<path d="M39.1196 11.4949V2.04919H48.1931V3.91432H40.9727V5.99958H47.985V7.5285H40.9727V9.64178H48.1931V11.4949H39.1196Z" fill="white"/>
<path d="M67.9051 8.76122C67.9051 10.7664 67.0806 11.4909 64.8313 11.4909H57.3948C57.799 9.64176 57.3948 11.4629 57.791 9.63775H64.7072C65.7078 9.63775 65.996 9.40561 65.996 8.59312C65.996 7.79664 65.7198 7.54849 64.7472 7.54849H60.9169C58.6515 7.54849 57.9231 6.74 57.9231 5.01096V4.69477C57.9231 2.81363 58.6795 2.04517 60.9689 2.04517H68.2894C68.0692 2.73758 68.2773 2.08519 67.701 3.9263H60.9689C60.0644 3.9263 59.8042 4.21448 59.8042 4.95492C59.8042 5.69537 60.0644 5.99956 60.9689 5.99956H64.7432C67.0886 5.99956 67.9011 6.76802 67.9011 8.42902V8.76122H67.9051Z" fill="white"/>
<path d="M67.9451 11.4949L70.8668 2.05322H72.9521L70.0744 11.4509L67.9451 11.4949Z" fill="white"/>
<path d="M76.4182 11.4949V3.91835H73.1963L73.7606 2.05322H81.7134V3.91835H78.2674V11.4949H76.4182Z" fill="white"/>
<path d="M82.522 11.4949V2.04919H91.5954V3.91432H84.3751V5.99958H91.3873V7.5285H84.3751V9.64178H91.5954V11.4949H82.522Z" fill="white"/>
<path d="M103.807 2.04919L98.6355 11.4949H100.609L105.52 2.04919H103.807ZM106.216 2.91372L105.256 4.76683L106.925 7.82068H103.671L102.902 9.30157H107.629L108.81 11.4989H110.923L106.216 2.91372Z" fill="white"/>
<path d="M119.704 11.4949L116.438 8.40503H113.461V11.4949H111.595V2.04919H119.308C121.313 2.04919 122.014 2.82967 122.014 4.97096V5.54731C122.014 7.8527 121.149 8.37301 118.816 8.37301L122.314 11.4869H119.704V11.4949ZM120.173 5.29115C120.173 4.3706 120.065 3.93433 119.252 3.93433H113.461V6.8561H119.252C119.912 6.8561 120.173 6.56792 120.173 5.74343V5.29115Z" fill="white"/>
<path d="M126.633 11.4949V3.91835H123.187V2.05322H131.928V3.91835H128.482V11.4949H126.633Z" fill="white"/>
<path d="M94.2368 11.5188C94.8712 11.5188 95.3855 11.0045 95.3855 10.3701C95.3855 9.73572 94.8712 9.22144 94.2368 9.22144C93.6024 9.22144 93.0881 9.73572 93.0881 10.3701C93.0881 11.0045 93.6024 11.5188 94.2368 11.5188Z" fill="white"/>
<path d="M55.1052 5.97949H49.9861V7.50041H55.1052V5.97949Z" fill="white"/>
<path d="M169.41 7.90882L167.241 1.95322L163.839 1.94922L167.601 11.8432H170.819L171.852 9.24162L170.387 5.33927L169.41 7.90882Z" fill="white"/>
<path d="M170.379 1.9491L174.089 11.8511L177.363 11.8551L173.689 1.9491H170.379Z" fill="white"/>
<path d="M177.915 6.61196C178.884 6.61196 179.752 6.0116 180.097 5.10305C180.669 3.58213 179.544 1.95715 177.915 1.95715H175.15L176.887 6.61196H177.915Z" fill="white"/>
<path d="M178.74 8.54511C177.927 9.01339 177.651 10.05 178.119 10.8625C178.588 11.675 179.624 11.9512 180.437 11.4829C181.249 11.0146 181.526 9.97797 181.057 9.16548C180.589 8.357 179.552 8.07683 178.74 8.54511Z" fill="white"/>
<path d="M185.02 7.88869H189.766V6.0956H185.02V3.87026H190.303V2.08118H182.79V11.9471H190.459V10.1581H185.02V7.88869Z" fill="white"/>
<path d="M199.993 7.57249C199.628 7.12422 199.124 6.84005 198.488 6.71998C199.012 6.5879 199.428 6.32774 199.733 5.93551C200.041 5.54727 200.193 5.08299 200.193 4.54667C200.193 4.03836 200.049 3.6021 199.761 3.22987C199.476 2.85765 199.068 2.57347 198.544 2.37736C198.015 2.18124 197.391 2.08118 196.667 2.08118H192.128V11.9471H196.823C197.583 11.9471 198.24 11.8391 198.796 11.6149C199.352 11.3948 199.781 11.0826 200.085 10.6704C200.393 10.2621 200.545 9.77783 200.545 9.21348C200.545 8.56509 200.361 8.01676 199.993 7.57249ZM194.357 3.84224H196.555C196.967 3.83424 197.299 3.92629 197.543 4.11841C197.787 4.31052 197.907 4.57869 197.907 4.9269C197.907 5.28711 197.787 5.56328 197.543 5.7674C197.299 5.96752 196.967 6.07159 196.555 6.07159H194.357V3.84224ZM197.795 9.86188C197.495 10.078 197.083 10.1861 196.555 10.1861H194.357V7.76061H196.555C197.083 7.7526 197.495 7.85667 197.795 8.0728C198.096 8.28893 198.248 8.5771 198.248 8.94532C198.248 9.34156 198.096 9.64575 197.795 9.86188Z" fill="white"/>
<path d="M210.079 7.57249C209.711 7.12422 209.206 6.84005 208.57 6.71998C209.094 6.5879 209.511 6.32774 209.815 5.93551C210.123 5.54727 210.275 5.08299 210.275 4.54667C210.275 4.03836 210.131 3.6021 209.843 3.22987C209.559 2.85765 209.15 2.57347 208.626 2.37736C208.098 2.18124 207.473 2.08118 206.749 2.08118H202.21V11.9471H206.905C207.665 11.9471 208.326 11.8391 208.878 11.6149C209.435 11.3948 209.863 11.0826 210.167 10.6704C210.475 10.2621 210.627 9.77783 210.627 9.21348C210.627 8.56509 210.443 8.01676 210.079 7.57249ZM204.44 3.84224H206.637C207.049 3.83424 207.381 3.92629 207.625 4.11841C207.87 4.31052 207.99 4.57869 207.99 4.9269C207.99 5.28711 207.87 5.56328 207.625 5.7674C207.381 5.96752 207.049 6.07159 206.637 6.07159H204.44V3.84224ZM207.878 9.86188C207.577 10.078 207.165 10.1861 206.637 10.1861H204.44V7.76061H206.637C207.165 7.7526 207.577 7.85667 207.878 8.0728C208.178 8.28893 208.33 8.5771 208.33 8.94532C208.33 9.34156 208.178 9.64575 207.878 9.86188Z" fill="white"/>
<path d="M221.818 4.99901C221.55 4.38664 221.178 3.85031 220.697 3.39004C220.217 2.92976 219.657 2.57354 219.012 2.32139C218.368 2.06524 217.672 1.94116 216.919 1.94116C216.167 1.94116 215.47 2.06524 214.826 2.32139C214.181 2.57354 213.621 2.92976 213.141 3.38604C212.664 3.83831 212.288 4.37463 212.02 4.991C211.756 5.60738 211.62 6.27578 211.62 7.00022C211.62 7.71265 211.756 8.38105 212.02 9.00143C212.288 9.6218 212.664 10.1661 213.141 10.6304C213.621 11.0947 214.181 11.4549 214.826 11.7151C215.47 11.9752 216.167 12.1033 216.919 12.1033C217.672 12.1033 218.368 11.9752 219.012 11.7151C219.657 11.4549 220.217 11.0947 220.697 10.6304C221.178 10.1661 221.55 9.6218 221.818 9.00143C222.086 8.38105 222.222 7.71265 222.222 7.00022C222.222 6.27578 222.086 5.60738 221.818 4.99901ZM219.705 8.26098C219.549 8.65322 219.337 8.99342 219.064 9.2896C218.788 9.58578 218.472 9.81792 218.112 9.98202C217.748 10.1461 217.363 10.2262 216.947 10.2262C216.535 10.2262 216.147 10.1461 215.778 9.98202C215.41 9.81792 215.086 9.58578 214.806 9.2896C214.526 8.99342 214.301 8.65322 214.141 8.26098C213.985 7.87275 213.905 7.45249 213.905 7.00022C213.905 6.54794 213.985 6.13169 214.141 5.74746C214.301 5.35923 214.522 5.02302 214.798 4.73085C215.074 4.43867 215.402 4.21453 215.77 4.05444C216.143 3.89434 216.535 3.81429 216.947 3.81429C217.363 3.81429 217.748 3.89434 218.112 4.05444C218.472 4.21453 218.788 4.43867 219.064 4.73085C219.337 5.02302 219.549 5.35923 219.705 5.74746C219.861 6.13169 219.937 6.54794 219.937 7.00022C219.937 7.45249 219.861 7.87275 219.705 8.26098Z" fill="white"/>
<path d="M223.771 3.71814L225.901 6.73596V11.9471H223.771V3.71814Z" fill="white"/>
<path d="M232.693 2.08118V11.9471H230.811L223.823 2.08118H225.8L230.591 8.54508V2.08118H232.693Z" fill="white"/>
<path d="M243.851 5.01095C243.595 4.41058 243.239 3.89027 242.779 3.45401C242.318 3.01774 241.77 2.68154 241.138 2.44139C240.501 2.20125 239.801 2.08118 239.028 2.08118H234.858V11.9471H238.96C239.737 11.9471 240.449 11.8271 241.094 11.5869C241.738 11.3468 242.294 11.0066 242.767 10.5663C243.235 10.126 243.595 9.60172 243.851 9.00136C244.103 8.40099 244.232 7.73659 244.232 7.01616C244.232 6.27971 244.103 5.61531 243.851 5.01095ZM241.75 8.28092C241.61 8.65715 241.41 8.98535 241.15 9.26152C240.894 9.54168 240.589 9.75381 240.241 9.9019C239.893 10.054 239.509 10.13 239.084 10.13H237.083V3.88627H238.988C239.421 3.88627 239.817 3.95831 240.177 4.1104C240.541 4.26249 240.854 4.47862 241.114 4.7668C241.378 5.05097 241.586 5.38717 241.734 5.7674C241.886 6.14763 241.962 6.56789 241.962 7.02817C241.962 7.48844 241.89 7.9087 241.75 8.28092Z" fill="white"/>
</svg>
