<svg width="1162" height="241" viewBox="0 0 1162 241" fill="none" xmlns="http://www.w3.org/2000/svg">
<g style="mix-blend-mode:overlay">
<path d="M812 54.5217C812 53.9615 812.135 53.6815 812.439 53.6815C816.183 53.1525 818.645 50.3829 819.792 45.3416C820.972 40.3003 821.546 33.672 821.546 25.4566C821.546 18.0192 822.119 12.5734 823.3 9.08809C824.48 5.60277 826.504 3.20661 829.405 1.96186C832.306 0.7171 836.859 0.0947266 843.032 0.0947266C843.403 0.0947266 843.605 0.343678 843.605 0.872699C843.605 1.40172 843.403 1.65067 843.032 1.65067C840.3 1.65067 838.208 2.83319 836.724 5.19822C835.24 7.56326 834.431 10.9552 834.329 15.3741C834.127 25.8923 833.756 33.3297 833.149 37.6552C832.542 41.9808 831.193 45.3727 829.068 47.8311C826.976 50.2895 823.333 52.5301 818.206 54.4906C823.367 56.5755 826.976 58.8783 829.068 61.4301C831.159 63.9818 832.542 67.4049 833.149 71.7304C833.756 76.056 834.161 83.4311 834.329 93.8871C834.431 98.2749 835.206 101.667 836.724 104.063C838.208 106.428 840.333 107.611 843.032 107.611C843.403 107.611 843.605 107.859 843.605 108.388C843.605 108.918 843.403 109.166 843.032 109.166C836.859 109.166 832.306 108.544 829.337 107.299C826.403 106.055 824.345 103.658 823.232 100.111C822.119 96.5633 821.546 91.0864 821.546 83.6801C821.546 75.4025 820.972 68.743 819.792 63.7329C818.611 58.7227 816.149 55.9532 812.439 55.4553C812.135 55.3619 812 55.0818 812 54.5217Z" fill="white"/>
<path d="M923.242 63.6382C922.061 68.6483 921.488 75.3078 921.488 83.5854C921.488 91.0228 920.914 96.4997 919.801 100.016C918.688 103.564 916.631 105.96 913.696 107.205C910.762 108.449 906.174 109.072 900.002 109.072C899.631 109.072 899.428 108.823 899.428 108.294C899.428 107.765 899.631 107.516 900.002 107.516C902.7 107.516 904.825 106.333 906.309 103.968C907.793 101.603 908.603 98.2113 908.704 93.7924C908.906 83.3364 909.277 75.9612 909.885 71.6357C910.492 67.3102 911.841 63.8871 913.966 61.3354C916.057 58.7836 919.7 56.4808 924.827 54.3958C919.666 52.4042 916.057 50.1948 913.966 47.7364C911.875 45.278 910.492 41.886 909.885 37.5605C909.277 33.235 908.873 25.8287 908.704 15.2794C908.603 10.8916 907.827 7.49967 906.309 5.10351C904.825 2.73847 902.7 1.55595 900.002 1.55595C899.631 1.55595 899.428 1.30699 899.428 0.777973C899.428 0.248951 899.631 0 900.002 0C906.174 0 910.728 0.622385 913.629 1.86714C916.53 3.1119 918.553 5.50806 919.734 8.99337C920.914 12.4787 921.488 17.9556 921.488 25.3619C921.488 33.5773 922.061 40.1745 923.242 45.2469C924.422 50.2882 926.851 53.0889 930.595 53.5868C930.865 53.5868 931 53.8668 931 54.427C931 54.9871 930.865 55.2672 930.595 55.2672C926.851 55.8895 924.389 58.6591 923.242 63.6382Z" fill="white"/>
<path d="M51.2835 61.9792L31.3153 11.4031L0 11.3691L34.6311 95.3907H64.2516L73.7568 73.2976L60.2728 40.1581L51.2835 61.9792Z" fill="white"/>
<path d="M60.1997 11.3652L94.3519 95.4548L124.488 95.4887L90.6677 11.3652H60.1997Z" fill="white"/>
<path d="M129.571 50.9641C138.487 50.9641 146.482 45.8657 149.65 38.1502C154.918 25.2342 144.566 11.4346 129.571 11.4346H104.114L120.103 50.9641H129.571Z" fill="white"/>
<path d="M137.161 67.3808C129.682 71.3576 127.14 80.1608 131.451 87.0606C135.761 93.9605 145.303 96.3057 152.782 92.329C160.261 88.3522 162.803 79.549 158.492 72.6491C154.182 65.7833 144.64 63.4041 137.161 67.3808Z" fill="white"/>
<path d="M194.966 61.8077H238.66V46.5805H194.966V27.6825H243.596V12.4893H174.445V96.2729H245.033V81.0797H194.966V61.8077Z" fill="white"/>
<path d="M332.789 59.1226C329.436 55.3158 324.795 52.9025 318.937 51.8829C323.763 50.7612 327.594 48.5519 330.394 45.221C333.231 41.924 334.631 37.9812 334.631 33.4267C334.631 29.11 333.305 25.4052 330.652 22.2442C328.037 19.0832 324.279 16.6699 319.452 15.0045C314.589 13.339 308.842 12.4893 302.174 12.4893H260.396V96.2729H303.611C310.61 96.2729 316.652 95.3552 321.773 93.4518C326.894 91.5824 330.837 88.9312 333.636 85.4303C336.473 81.9634 337.873 77.8507 337.873 73.0582C337.873 67.5519 336.178 62.8954 332.789 59.1226ZM280.916 27.4446H301.142C304.937 27.3766 307.995 28.1583 310.242 29.7898C312.489 31.4213 313.595 33.6986 313.595 36.6557C313.595 39.7147 312.489 42.0599 310.242 43.7934C307.995 45.4929 304.937 46.3766 301.142 46.3766H280.916V27.4446ZM312.563 78.5645C309.8 80.3999 306.005 81.3176 301.142 81.3176H280.916V60.7201H301.142C306.005 60.6521 309.8 61.5358 312.563 63.3713C315.326 65.2067 316.726 67.6539 316.726 70.7809C316.726 74.1459 315.326 76.729 312.563 78.5645Z" fill="white"/>
<path d="M425.632 59.1226C422.242 55.3158 417.6 52.9025 411.742 51.8829C416.569 50.7612 420.4 48.5519 423.2 45.221C426.037 41.924 427.437 37.9812 427.437 33.4267C427.437 29.11 426.111 25.4052 423.458 22.2442C420.842 19.0832 417.084 16.6699 412.258 15.0045C407.395 13.339 401.648 12.4893 394.979 12.4893H353.201V96.2729H396.416C403.416 96.2729 409.495 95.3552 414.579 93.4518C419.7 91.5824 423.642 88.9312 426.442 85.4303C429.279 81.9634 430.679 77.8507 430.679 73.0582C430.679 67.5519 428.984 62.8954 425.632 59.1226ZM373.722 27.4446H393.948C397.743 27.3766 400.8 28.1583 403.048 29.7898C405.295 31.4213 406.4 33.6986 406.4 36.6557C406.4 39.7147 405.295 42.0599 403.048 43.7934C400.8 45.4929 397.743 46.3766 393.948 46.3766H373.722V27.4446ZM405.369 78.5645C402.606 80.3999 398.811 81.3176 393.948 81.3176H373.722V60.7201H393.948C398.811 60.6521 402.606 61.5358 405.369 63.3713C408.132 65.2067 409.532 67.6539 409.532 70.7809C409.532 74.1459 408.132 76.729 405.369 78.5645Z" fill="white"/>
<path d="M533.688 37.2667C531.219 32.0663 527.793 27.5117 523.372 23.603C518.951 19.6942 513.793 16.6691 507.862 14.5278C501.93 12.3525 495.52 11.2988 488.594 11.2988C481.667 11.2988 475.257 12.3525 469.325 14.5278C463.394 16.6691 458.236 19.6942 453.815 23.569C449.431 27.4098 445.968 31.9643 443.5 37.1987C441.068 42.433 439.815 48.1092 439.815 54.2613C439.815 60.3114 441.068 65.9876 443.5 71.256C445.968 76.5243 449.431 81.1469 453.815 85.0896C458.236 89.0324 463.394 92.0914 469.325 94.3007C475.257 96.51 481.667 97.5977 488.594 97.5977C495.52 97.5977 501.93 96.51 507.862 94.3007C513.793 92.0914 518.951 89.0324 523.372 85.0896C527.793 81.1469 531.219 76.5243 533.688 71.256C536.156 65.9876 537.409 60.3114 537.409 54.2613C537.409 48.1092 536.156 42.433 533.688 37.2667ZM514.235 64.9679C512.798 68.2989 510.846 71.188 508.341 73.7032C505.799 76.2184 502.888 78.1898 499.572 79.5833C496.22 80.9769 492.683 81.6567 488.851 81.6567C485.057 81.6567 481.483 80.9769 478.094 79.5833C474.704 78.1898 471.72 76.2184 469.141 73.7032C466.562 71.188 464.499 68.2989 463.026 64.9679C461.589 61.671 460.852 58.1021 460.852 54.2613C460.852 50.4205 461.589 46.8856 463.026 43.6227C464.499 40.3257 466.526 37.4706 469.068 34.9894C471.61 32.5081 474.631 30.6047 478.02 29.2452C481.446 27.8856 485.057 27.2058 488.851 27.2058C492.683 27.2058 496.22 27.8856 499.572 29.2452C502.888 30.6047 505.799 32.5081 508.341 34.9894C510.846 37.4706 512.798 40.3257 514.235 43.6227C515.672 46.8856 516.372 50.4205 516.372 54.2613C516.372 58.1021 515.672 61.671 514.235 64.9679Z" fill="white"/>
<path d="M551.667 26.3887L571.266 52.0166V96.2707H551.667V26.3887Z" fill="white"/>
<path d="M633.786 12.4893V96.2729H616.47L552.145 12.4893H570.345L614.444 67.382V12.4893H633.786Z" fill="white"/>
<path d="M736.5 37.3694C734.142 32.271 730.863 27.8524 726.627 24.1476C722.39 20.4428 717.343 17.5877 711.522 15.5483C705.664 13.5089 699.217 12.4893 692.106 12.4893H653.717V96.2729H691.48C698.627 96.2729 705.185 95.2532 711.116 93.2139C717.048 91.1745 722.169 88.2854 726.516 84.5466C730.826 80.8078 734.142 76.3552 736.5 71.2568C738.821 66.1584 740 60.5162 740 54.3981C740 48.144 738.821 42.5018 736.5 37.3694ZM717.158 65.1387C715.869 68.3337 714.027 71.1208 711.632 73.4661C709.274 75.8453 706.474 77.6468 703.269 78.9044C700.064 80.196 696.527 80.8418 692.622 80.8418H674.201V27.8184H691.738C695.717 27.8184 699.364 28.4302 702.68 29.7218C706.032 31.0134 708.906 32.8488 711.301 35.2961C713.732 37.7093 715.648 40.5644 717.011 43.7934C718.411 47.0224 719.111 50.5913 719.111 54.5C719.111 58.4088 718.448 61.9777 717.158 65.1387Z" fill="white"/>
<path d="M157.703 218.252V240.312L105.223 207.044V184.24L157.703 150.972V173.032L120.417 195.642L157.703 218.252Z" fill="white"/>
<path d="M212.072 195.642L174.786 173.032V150.972L227.266 184.24V207.044L174.786 240.312V218.252L212.072 195.642Z" fill="white"/>
<path d="M33.6973 231.753C14.0217 231.753 8 226.004 8 207.044V180.236C8 161.179 13.9867 155.526 33.6973 155.526H80.0505C92.304 155.526 97.9407 162.503 99.8662 166.702L89.5382 176.456C88.1028 173.453 85.232 170.578 78.9652 170.578H33.8024C26.5903 170.578 24.0696 173 24.0696 180.203V207.109C24.0696 213.536 25.505 216.734 33.8024 216.734H79.5254C85.8972 216.734 88.523 213.73 89.9584 210.855L100.286 220.481C98.5008 224.68 92.7242 231.656 80.4707 231.656H33.6973V231.753Z" fill="white"/>
<path d="M239.801 231.753V155.526H309.296C329.356 155.526 335.238 161.631 335.238 180.236V207.044C335.238 225.746 329.356 231.753 309.296 231.753H239.801ZM319.028 180.332C319.028 172.807 316.403 170.578 309.296 170.578H256.115V216.766H309.296C316.613 216.766 319.028 214.667 319.028 207.141V180.332Z" fill="white"/>
<path d="M350.188 231.753V155.526H429.555V170.578H366.397V187.406H427.735V199.744H366.397V216.799H429.555V231.753H350.188Z" fill="white"/>
<path d="M601.98 209.694C601.98 225.876 594.768 231.722 575.092 231.722H510.044C513.58 216.8 510.044 231.496 513.51 216.767H574.007C582.76 216.767 585.28 214.894 585.28 208.337C585.28 201.91 582.865 199.907 574.357 199.907H540.853C521.037 199.907 514.665 193.382 514.665 179.429V176.877C514.665 161.697 521.282 155.495 541.308 155.495H605.341C603.415 161.083 605.236 155.818 600.195 170.676H541.308C533.396 170.676 531.12 173.001 531.12 178.977C531.12 184.952 533.396 187.407 541.308 187.407H574.322C594.838 187.407 601.945 193.609 601.945 207.013V209.694H601.98Z" fill="white"/>
<path d="M602.33 231.753L627.887 155.559H646.127L620.955 231.398L602.33 231.753Z" fill="white"/>
<path d="M676.446 231.753V170.61H648.263L653.199 155.559H722.764V170.61H692.62V231.753H676.446Z" fill="white"/>
<path d="M729.837 231.753V155.526H809.204V170.578H746.047V187.406H807.384V199.744H746.047V216.799H809.204V231.753H729.837Z" fill="white"/>
<path d="M916.018 155.526L870.785 231.753H888.045L931.002 155.526H916.018ZM937.094 162.503L928.692 177.458L943.291 202.102H914.828L908.106 214.053H949.453L959.781 231.786H978.266L937.094 162.503Z" fill="white"/>
<path d="M1055.08 231.753L1026.51 206.818H1000.46V231.753H984.148V155.526H1051.61C1069.15 155.526 1075.28 161.825 1075.28 179.105V183.756C1075.28 202.361 1067.72 206.56 1047.31 206.56L1077.91 231.689H1055.08V231.753ZM1059.17 181.689C1059.17 174.26 1058.23 170.739 1051.12 170.739H1000.46V194.318H1051.12C1056.9 194.318 1059.17 191.993 1059.17 185.339V181.689Z" fill="white"/>
<path d="M1115.68 231.753V170.61H1085.54V155.559H1162V170.61H1131.86V231.753H1115.68Z" fill="white"/>
<path d="M832.309 231.948C837.858 231.948 842.357 227.798 842.357 222.678C842.357 217.558 837.858 213.408 832.309 213.408C826.76 213.408 822.261 217.558 822.261 222.678C822.261 227.798 826.76 231.948 832.309 231.948Z" fill="white"/>
<path d="M490.017 187.243H445.239V199.517H490.017V187.243Z" fill="white"/>
</g>
</svg>
