<svg width="121" height="21" viewBox="0 0 121 21" fill="none" xmlns="http://www.w3.org/2000/svg">
<path d="M0.00012207 9.9627C0.00012207 9.86034 0.0228715 9.80916 0.0740515 9.80916C0.705271 9.71249 1.12039 9.20638 1.31374 8.28514C1.51277 7.36389 1.60944 6.15264 1.60944 4.65136C1.60944 3.29224 1.70613 2.29708 1.90516 1.66017C2.10419 1.02326 2.44539 0.585389 2.93444 0.357923C3.4235 0.130456 4.19118 0.0167236 5.23184 0.0167236C5.2944 0.0167236 5.32853 0.062217 5.32853 0.15889C5.32853 0.255564 5.2944 0.301057 5.23184 0.301057C4.77122 0.301057 4.41865 0.51715 4.16844 0.949337C3.91823 1.38152 3.78175 2.00137 3.76469 2.80888C3.73057 4.73097 3.66802 6.09008 3.56566 6.88053C3.4633 7.67098 3.23583 8.29082 2.87757 8.74007C2.525 9.18932 1.91084 9.59875 1.04647 9.95701C1.91653 10.338 2.525 10.7588 2.87757 11.2251C3.23015 11.6914 3.4633 12.317 3.56566 13.1074C3.66802 13.8979 3.73626 15.2456 3.76469 17.1563C3.78175 17.9582 3.91254 18.578 4.16844 19.0159C4.41865 19.4481 4.77691 19.6642 5.23184 19.6642C5.2944 19.6642 5.32853 19.7096 5.32853 19.8063C5.32853 19.903 5.2944 19.9485 5.23184 19.9485C4.19118 19.9485 3.42349 19.8348 2.92306 19.6073C2.42832 19.3798 2.08143 18.9419 1.89377 18.2937C1.70611 17.6454 1.60944 16.6445 1.60944 15.2911C1.60944 13.7785 1.51277 12.5615 1.31374 11.646C1.11471 10.7304 0.699585 10.2243 0.0740515 10.1333C0.0228715 10.1162 0.00012207 10.0651 0.00012207 9.9627Z" fill="white"/>
<path d="M18.7571 11.6295C18.5581 12.545 18.4614 13.762 18.4614 15.2746C18.4614 16.6337 18.3647 17.6346 18.1771 18.2772C17.9894 18.9255 17.6425 19.3633 17.1478 19.5908C16.653 19.8183 15.8797 19.932 14.839 19.932C14.7764 19.932 14.7423 19.8865 14.7423 19.7898C14.7423 19.6932 14.7764 19.6477 14.839 19.6477C15.2939 19.6477 15.6522 19.4316 15.9024 18.9994C16.1526 18.5672 16.2891 17.9474 16.3061 17.1399C16.3403 15.2291 16.4028 13.8814 16.5052 13.091C16.6075 12.3005 16.835 11.675 17.1933 11.2087C17.5459 10.7424 18.16 10.3215 19.0244 9.94054C18.1543 9.57659 17.5459 9.17284 17.1933 8.72359C16.8407 8.27434 16.6075 7.6545 16.5052 6.86405C16.4028 6.0736 16.3346 4.72018 16.3061 2.7924C16.2891 1.99058 16.1583 1.37073 15.9024 0.932859C15.6522 0.500673 15.2939 0.284577 14.839 0.284577C14.7764 0.284577 14.7423 0.239084 14.7423 0.142411C14.7423 0.0457375 14.7764 0.000244141 14.839 0.000244141C15.8797 0.000244141 16.6474 0.113979 17.1364 0.341445C17.6255 0.568912 17.9667 1.00679 18.1657 1.64369C18.3647 2.2806 18.4614 3.28145 18.4614 4.63488C18.4614 6.13616 18.5581 7.34173 18.7571 8.26866C18.9561 9.1899 19.3656 9.7017 19.9968 9.79269C20.0423 9.79269 20.065 9.84387 20.065 9.94623C20.065 10.0486 20.0423 10.0998 19.9968 10.0998C19.3656 10.2135 18.9505 10.7196 18.7571 11.6295Z" fill="white"/>
<path d="M40.197 5.60024V7.43651L36.1669 4.66731V2.7692L40.197 0V1.83628L37.3337 3.71826L40.197 5.60024Z" fill="white"/>
<path d="M44.372 3.71826L41.5087 1.83628V0L45.5388 2.7692V4.66731L41.5087 7.43651V5.60024L44.372 3.71826Z" fill="white"/>
<path d="M30.6732 6.72412C29.1623 6.72412 28.6998 6.24556 28.6998 4.66738V2.43589C28.6998 0.849645 29.1596 0.37915 30.6732 0.37915H34.2329C35.1738 0.37915 35.6067 0.959876 35.7546 1.30939L34.9615 2.12133C34.8512 1.87129 34.6308 1.63201 34.1495 1.63201H30.6813C30.1274 1.63201 29.9339 1.83365 29.9339 2.4332V4.67276C29.9339 5.20778 30.0441 5.47394 30.6813 5.47394H34.1925C34.6818 5.47394 34.8835 5.22391 34.9937 4.98463L35.7868 5.78581C35.6497 6.13532 35.2061 6.71605 34.2651 6.71605H30.6732V6.72412Z" fill="white"/>
<path d="M46.5016 6.72412V0.37915H51.8383C53.3789 0.37915 53.8306 0.887285 53.8306 2.43589V4.66738C53.8306 6.22405 53.3789 6.72412 51.8383 6.72412H46.5016ZM52.5858 2.44395C52.5858 1.81752 52.3841 1.63201 51.8383 1.63201H47.7544V5.47663H51.8383C52.4003 5.47663 52.5858 5.30188 52.5858 4.67545V2.44395Z" fill="white"/>
<path d="M54.9777 6.72412V0.37915H61.0726V1.63201H56.2225V3.03274H60.9328V4.05977H56.2225V5.47932H61.0726V6.72412H54.9777Z" fill="white"/>
<path d="M74.3149 4.88809C74.3149 6.23505 73.761 6.72168 72.2501 6.72168H67.2548C67.5263 5.47957 67.2548 6.70285 67.5209 5.47688H72.1667C72.8389 5.47688 73.0324 5.32094 73.0324 4.77517C73.0324 4.24015 72.8469 4.07346 72.1936 4.07346H69.6207C68.099 4.07346 67.6096 3.53037 67.6096 2.36892V2.15653C67.6096 0.892909 68.1178 0.376709 69.6556 0.376709H74.573C74.4251 0.841827 74.5649 0.403595 74.1778 1.64033H69.6556C69.048 1.64033 68.8733 1.8339 68.8733 2.33128C68.8733 2.82866 69.048 3.03299 69.6556 3.03299H72.1909C73.7664 3.03299 74.3122 3.54919 74.3122 4.66494V4.88809H74.3149Z" fill="white"/>
<path d="M74.3429 6.7246L76.3055 0.382324H77.7063L75.7732 6.69503L74.3429 6.7246Z" fill="white"/>
<path d="M80.0304 6.7246V1.63519H77.8661L78.2452 0.382324H83.5873V1.63519H81.2725V6.7246H80.0304Z" fill="white"/>
<path d="M84.1312 6.72412V0.37915H90.2262V1.63201H85.376V3.03274H90.0864V4.05977H85.376V5.47932H90.2262V6.72412H84.1312Z" fill="white"/>
<path d="M98.429 0.37915L94.9554 6.72412H96.2809L99.5797 0.37915H98.429ZM100.048 0.959876L99.4023 2.20467L100.523 4.25603H98.3376L97.8214 5.25079H100.997L101.79 6.7268H103.209L100.048 0.959876Z" fill="white"/>
<path d="M109.11 6.72412L106.916 4.64856H104.916V6.72412H103.663V0.37915H108.844C110.191 0.37915 110.661 0.903416 110.661 2.34179V2.72894C110.661 4.27754 110.081 4.62705 108.513 4.62705L110.863 6.71874H109.11V6.72412ZM109.425 2.55687C109.425 1.93851 109.352 1.64545 108.806 1.64545H104.916V3.60809H108.806C109.25 3.60809 109.425 3.41452 109.425 2.86068V2.55687Z" fill="white"/>
<path d="M113.763 6.7246V1.63519H111.448V0.382324H117.32V1.63519H115.005V6.7246H113.763Z" fill="white"/>
<path d="M92.0012 6.74C92.4274 6.74 92.7728 6.39454 92.7728 5.96839C92.7728 5.54224 92.4274 5.19678 92.0012 5.19678C91.5751 5.19678 91.2296 5.54224 91.2296 5.96839C91.2296 6.39454 91.5751 6.74 92.0012 6.74Z" fill="white"/>
<path d="M65.7168 3.01917H62.2782V4.04081H65.7168V3.01917Z" fill="white"/>
<path d="M32.4422 17.446L30.985 13.4454L28.6997 13.4427L31.2269 20.0888H33.3885L34.0822 18.3413L33.0982 15.7199L32.4422 17.446Z" fill="white"/>
<path d="M33.0925 13.4423L35.5848 20.0937L37.784 20.0964L35.316 13.4423H33.0925Z" fill="white"/>
<path d="M38.1561 16.5749C38.8068 16.5749 39.3902 16.1716 39.6214 15.5613C40.0058 14.5397 39.2504 13.4481 38.1561 13.4481H36.2983L37.4652 16.5749H38.1561Z" fill="white"/>
<path d="M38.71 17.8731C38.1643 18.1876 37.9788 18.884 38.2933 19.4297C38.6079 19.9755 39.3042 20.161 39.85 19.8465C40.3958 19.5319 40.5813 18.8356 40.2667 18.2898C39.9521 17.7467 39.2558 17.5585 38.71 17.8731Z" fill="white"/>
<path d="M42.9283 17.4327H46.1169V16.2282H42.9283V14.7334H46.4772V13.5316H41.4308V20.1589H46.582V18.9571H42.9283V17.4327Z" fill="white"/>
<path d="M52.9865 17.2203C52.7418 16.9192 52.4031 16.7283 51.9756 16.6476C52.3278 16.5589 52.6074 16.3842 52.8117 16.1207C53.0187 15.8599 53.1209 15.548 53.1209 15.1878C53.1209 14.8463 53.0241 14.5533 52.8305 14.3032C52.6397 14.0532 52.3654 13.8623 52.0132 13.7306C51.6583 13.5988 51.2389 13.5316 50.7523 13.5316H47.7035V20.1589H50.8571C51.368 20.1589 51.8089 20.0863 52.1826 19.9357C52.5563 19.7879 52.844 19.5782 53.0483 19.3012C53.2553 19.027 53.3575 18.7017 53.3575 18.3226C53.3575 17.8871 53.2338 17.5187 52.9865 17.2203ZM49.201 14.7146H50.677C50.9539 14.7092 51.1771 14.771 51.3411 14.9001C51.5051 15.0291 51.5858 15.2093 51.5858 15.4432C51.5858 15.6851 51.5051 15.8707 51.3411 16.0078C51.1771 16.1422 50.9539 16.2121 50.677 16.2121H49.201V14.7146ZM51.5105 18.7581C51.3088 18.9033 51.0319 18.9759 50.677 18.9759H49.201V17.3467H50.677C51.0319 17.3413 51.3088 17.4112 51.5105 17.5564C51.7121 17.7016 51.8143 17.8951 51.8143 18.1425C51.8143 18.4086 51.7121 18.613 51.5105 18.7581Z" fill="white"/>
<path d="M59.7614 17.2203C59.514 16.9192 59.1753 16.7283 58.7478 16.6476C59.1 16.5589 59.3796 16.3842 59.5839 16.1207C59.791 15.8599 59.8931 15.548 59.8931 15.1878C59.8931 14.8463 59.7963 14.5533 59.6028 14.3032C59.4119 14.0532 59.1376 13.8623 58.7854 13.7306C58.4305 13.5988 58.0111 13.5316 57.5245 13.5316H54.4757V20.1589H57.6294C58.1402 20.1589 58.5838 20.0863 58.9548 19.9357C59.3285 19.7879 59.6162 19.5782 59.8205 19.3012C60.0276 19.027 60.1297 18.7017 60.1297 18.3226C60.1297 17.8871 60.006 17.5187 59.7614 17.2203ZM55.9732 14.7146H57.4492C57.7262 14.7092 57.9493 14.771 58.1133 14.9001C58.2773 15.0291 58.358 15.2093 58.358 15.4432C58.358 15.6851 58.2773 15.8707 58.1133 16.0078C57.9493 16.1422 57.7262 16.2121 57.4492 16.2121H55.9732V14.7146ZM58.2827 18.7581C58.081 18.9033 57.8041 18.9759 57.4492 18.9759H55.9732V17.3467H57.4492C57.8041 17.3413 58.081 17.4112 58.2827 17.5564C58.4843 17.7016 58.5865 17.8951 58.5865 18.1425C58.5865 18.4086 58.4843 18.613 58.2827 18.7581Z" fill="white"/>
<path d="M67.6457 15.4909C67.4656 15.0796 67.2155 14.7193 66.8929 14.4101C66.5703 14.101 66.1939 13.8617 65.761 13.6923C65.3282 13.5202 64.8604 13.4369 64.3549 13.4369C63.8495 13.4369 63.3817 13.5202 62.9488 13.6923C62.5159 13.8617 62.1396 14.101 61.8169 14.4075C61.497 14.7113 61.2443 15.0715 61.0641 15.4856C60.8867 15.8996 60.7953 16.3486 60.7953 16.8352C60.7953 17.3138 60.8867 17.7628 61.0641 18.1795C61.2443 18.5962 61.497 18.9618 61.8169 19.2737C62.1396 19.5856 62.5159 19.8276 62.9488 20.0023C63.3817 20.1771 63.8495 20.2631 64.3549 20.2631C64.8604 20.2631 65.3282 20.1771 65.761 20.0023C66.1939 19.8276 66.5703 19.5856 66.8929 19.2737C67.2155 18.9618 67.4656 18.5962 67.6457 18.1795C67.8258 17.7628 67.9172 17.3138 67.9172 16.8352C67.9172 16.3486 67.8258 15.8996 67.6457 15.4909ZM66.2261 17.6821C66.1213 17.9456 65.9788 18.1741 65.796 18.3731C65.6105 18.572 65.3981 18.7279 65.1561 18.8382C64.9114 18.9484 64.6533 19.0022 64.3737 19.0022C64.0968 19.0022 63.836 18.9484 63.5887 18.8382C63.3413 18.7279 63.1236 18.572 62.9354 18.3731C62.7472 18.1741 62.5966 17.9456 62.4891 17.6821C62.3842 17.4213 62.3304 17.139 62.3304 16.8352C62.3304 16.5314 62.3842 16.2518 62.4891 15.9937C62.5966 15.7329 62.7445 15.5071 62.93 15.3108C63.1155 15.1145 63.336 14.964 63.5833 14.8564C63.8333 14.7489 64.0968 14.6951 64.3737 14.6951C64.6533 14.6951 64.9114 14.7489 65.1561 14.8564C65.3981 14.964 65.6105 15.1145 65.796 15.3108C65.9788 15.5071 66.1213 15.7329 66.2261 15.9937C66.331 16.2518 66.3821 16.5314 66.3821 16.8352C66.3821 17.139 66.331 17.4213 66.2261 17.6821Z" fill="white"/>
<path d="M68.9585 14.6306L70.3888 16.6578V20.1583H68.9585V14.6306Z" fill="white"/>
<path d="M74.9524 13.5316V20.1589H73.6888L68.9946 13.5316H70.3228L73.541 17.8736V13.5316H74.9524Z" fill="white"/>
<path d="M82.4467 15.4996C82.2746 15.0963 82.0353 14.7468 81.7261 14.4538C81.417 14.1607 81.0486 13.9349 80.6238 13.7736C80.1964 13.6123 79.7259 13.5316 79.207 13.5316H76.4055V20.1589H79.1613C79.6829 20.1589 80.1614 20.0782 80.5943 19.9169C81.0271 19.7556 81.4008 19.5271 81.7181 19.2313C82.0326 18.9356 82.2746 18.5834 82.4467 18.1801C82.616 17.7768 82.7021 17.3305 82.7021 16.8466C82.7021 16.3519 82.616 15.9056 82.4467 15.4996ZM81.0352 17.6962C80.9411 17.9489 80.8067 18.1694 80.6319 18.3549C80.4598 18.5431 80.2555 18.6856 80.0216 18.785C79.7877 18.8872 79.5296 18.9383 79.2446 18.9383H77.9003V14.7442H79.1801C79.4705 14.7442 79.7366 14.7925 79.9786 14.8947C80.2232 14.9969 80.433 15.1421 80.6077 15.3356C80.7852 15.5265 80.925 15.7524 81.0244 16.0078C81.1266 16.2632 81.1777 16.5455 81.1777 16.8547C81.1777 17.1638 81.1293 17.4461 81.0352 17.6962Z" fill="white"/>
</svg>
